<?xml version="1.0" encoding="utf-8"?>
<!-- Generator: Adobe Illustrator 25.4.1, SVG Export Plug-In . SVG Version: 6.00 Build 0)  -->
<svg version="1.1" id="Слой_1" xmlns:svgjs="http://svgjs.com/svgjs"
	 xmlns="http://www.w3.org/2000/svg" xmlns:xlink="http://www.w3.org/1999/xlink" x="0px" y="0px" viewBox="0 0 512 512"
	 style="enable-background:new 0 0 512 512;" xml:space="preserve">
<style type="text/css">
	.st0{fill:#FFD15C;}
	.st1{fill:#FF525D;}
</style>
<g>
	<path class="st0" d="M216.3,130.8l164.9,164.9L267.1,409.8c9.2,1,18.1,5,25.2,12.1c17.1,17.1,16.4,45.3-2.2,61.5
		c-15.6,13.6-39.3,13.6-54.9,0.1c-8.5-7.3-13.2-17.1-14.3-27.3l-53.4,53.4c-3.3,3.3-8.6,3.3-11.8,0L111,464.9
		c-3.5-3.5-2.3-9.5,2.4-11.4c5.1-2,9.9-5.1,14-9.3c16.4-16.4,16.4-43,0-59.4s-43-16.4-59.4,0c-4.1,4.1-7.2,8.9-9.3,14
		c-1.9,4.7-7.9,5.9-11.4,2.4L2.5,356.4c-3.3-3.3-3.3-8.6,0-11.8l53.4-53.4c-9.2-1-18.1-5-25.2-12.1c-17.1-17.1-16.4-45.3,2.2-61.5
		c15.6-13.6,39.3-13.6,54.9-0.1c8.5,7.3,13.2,17.1,14.3,27.3L216.3,130.8z"/>
	<path class="st1" d="M483.4,235.1c-7.3-8.5-17.1-13.3-27.2-14.4l53.3-53.3c3.3-3.3,3.3-8.6,0-11.8l-53.4-53.4
		c10.1-1.1,20-5.9,27.3-14.3c13.5-15.7,13.5-39.3-0.1-54.9c-16.2-18.6-44.4-19.3-61.5-2.2c-7,7-11.1,16-12.1,25.2L356.4,2.4
		c-3.3-3.3-8.6-3.3-11.8,0l-44.7,44.7c-3.5,3.5-2.3,9.5,2.4,11.4c5.1,2.1,9.9,5.1,14,9.3c16.4,16.4,16.4,43,0,59.4s-43,16.4-59.4,0
		c-4.1-4.1-7.2-8.9-9.3-14c-1.9-4.7-7.9-5.9-11.4-2.4l-50.6,50.6l49.2,49.2c4.1,4.1,2.8,11.1-2.5,13.5c-5.4,2.4-10.5,6.1-14.7,10.9
		c-13.5,15.7-13.5,39.3,0.1,54.9c16.2,18.6,44.4,19.3,61.5,2.2c3.7-3.7,6.6-8,8.6-12.5c2.4-5.3,9.4-6.7,13.5-2.5l49.2,49.2
		l59.2-59.2c1,9.1,5,18,12,25c17.1,17.1,45.3,16.4,61.5-2.2C496.9,274.4,496.9,250.8,483.4,235.1z"/>
</g>
</svg>
